<?xml version="1.0" encoding="UTF-8"?>
<svg id="Camada_1" data-name="Camada 1" xmlns="http://www.w3.org/2000/svg" viewBox="0 0 451.92 32.44">
  <defs>
    <style>
      .cls-1 {
        fill: #fff;
      }

      .cls-2 {
        isolation: isolate;
      }
    </style>
  </defs>
  <g class="cls-2">
    <g class="cls-2">
      <path class="cls-1" d="M0,19.42l1.25-4.66h19.04l-1.29,4.66H0ZM1.78,24.71L8.46.35h4.77l-6.68,24.36H1.78ZM2.3,10.79l1.29-4.66h19.01l-1.25,4.66H2.3ZM9.47,24.71L16.15.35h4.77l-6.68,24.36h-4.77Z"/>
      <path class="cls-1" d="M24.71,24.71V.42h5.74v24.29h-5.74ZM28.82,17.09v-4.7h5.53c1.11,0,2.01-.34,2.68-1.03.67-.68,1.01-1.58,1.01-2.7s-.34-1.93-1.01-2.58c-.67-.65-1.57-.97-2.68-.97h-5.53V.42h5.57c1.93,0,3.61.34,5.05,1.01s2.55,1.63,3.34,2.87c.79,1.24,1.18,2.7,1.18,4.37s-.39,3.17-1.18,4.44-1.9,2.25-3.32,2.94c-1.43.7-3.12,1.04-5.06,1.04h-5.57Z"/>
      <path class="cls-1" d="M47.41,24.71V.42h5.74v24.29h-5.74ZM51.55,15.63v-4.7h5.46c.7,0,1.3-.13,1.83-.38.52-.25.93-.61,1.22-1.08.29-.46.43-.99.43-1.57s-.13-1.04-.4-1.46c-.27-.42-.63-.74-1.1-.97-.46-.23-1-.35-1.6-.35h-5.85V.42h5.85c1.76,0,3.32.3,4.68.89s2.42,1.44,3.19,2.56c.77,1.11,1.15,2.46,1.15,4.04,0,.95-.23,1.89-.68,2.8-.45.92-1.1,1.75-1.95,2.49-.85.74-1.87,1.33-3.06,1.78-1.2.44-2.55.66-4.06.66h-5.12ZM60.64,24.71c0-1.02-.19-2.06-.56-3.12-.37-1.06-.91-2.06-1.62-3.03-.71-.96-1.58-1.84-2.63-2.63-1.04-.79-2.25-1.43-3.62-1.91l6.37-1.29c1.35.67,2.52,1.47,3.52,2.4,1,.93,1.83,1.93,2.49,2.99.66,1.07,1.15,2.16,1.48,3.29.33,1.13.49,2.22.49,3.29h-5.92Z"/>
      <path class="cls-1" d="M79.22,25.13c-2.13,0-4.01-.5-5.62-1.51-1.61-1.01-2.87-2.45-3.76-4.33-.89-1.88-1.34-4.12-1.34-6.72s.45-4.87,1.34-6.75c.89-1.88,2.15-3.32,3.76-4.32,1.61-1,3.49-1.5,5.62-1.5s4,.5,5.6,1.5c1.6,1,2.85,2.43,3.74,4.3.89,1.87,1.34,4.12,1.34,6.77s-.45,4.84-1.34,6.72c-.89,1.88-2.14,3.32-3.74,4.33-1.6,1.01-3.47,1.51-5.6,1.51ZM79.22,20.43c.91,0,1.72-.31,2.44-.92.72-.62,1.29-1.51,1.71-2.68.42-1.17.63-2.59.63-4.26s-.21-3.13-.63-4.3c-.42-1.17-.99-2.06-1.71-2.66-.72-.6-1.53-.91-2.44-.91s-1.72.31-2.45.92c-.73.62-1.31,1.51-1.72,2.68-.42,1.17-.63,2.59-.63,4.26s.21,3.09.63,4.26c.42,1.17.99,2.07,1.72,2.68.73.62,1.55.92,2.45.92Z"/>
      <path class="cls-1" d="M93.64,24.71v-4.7h8.49c.95,0,1.67-.29,2.14-.87s.71-1.38.71-2.4V.42h5.74v15.98c0,1.39-.17,2.6-.52,3.64-.35,1.03-.88,1.9-1.58,2.59-.71.7-1.6,1.22-2.68,1.57-1.08.35-2.35.52-3.81.52h-8.49ZM96.84.42h13.4v4.7h-13.4V.42Z"/>
      <path class="cls-1" d="M115.67,24.71V.42h18v4.7h-12.25v4.7h7.9v4.7h-7.9v5.5h12.39v4.7h-18.14Z"/>
      <path class="cls-1" d="M144.18,24.71V5.12h-7.1V.42h19.95v4.7h-7.1v19.6h-5.74Z"/>
      <path class="cls-1" d="M169.73,25.13c-2.13,0-4.01-.5-5.62-1.51-1.61-1.01-2.87-2.45-3.76-4.33-.89-1.88-1.34-4.12-1.34-6.72s.45-4.87,1.34-6.75c.89-1.88,2.15-3.32,3.76-4.32,1.61-1,3.49-1.5,5.62-1.5s4,.5,5.6,1.5c1.6,1,2.85,2.43,3.74,4.3.89,1.87,1.34,4.12,1.34,6.77s-.45,4.84-1.34,6.72c-.89,1.88-2.14,3.32-3.74,4.33-1.6,1.01-3.47,1.51-5.6,1.51ZM169.73,20.43c.91,0,1.72-.31,2.44-.92.72-.62,1.29-1.51,1.71-2.68.42-1.17.63-2.59.63-4.26s-.21-3.13-.63-4.3c-.42-1.17-.99-2.06-1.71-2.66-.72-.6-1.53-.91-2.44-.91s-1.72.31-2.45.92c-.73.62-1.31,1.51-1.72,2.68-.42,1.17-.63,2.59-.63,4.26s.21,3.09.63,4.26c.42,1.17.99,2.07,1.72,2.68.73.62,1.55.92,2.45.92Z"/>
      <path class="cls-1" d="M182.88,24.71V.42h8.18c1.83,0,3.48.28,4.93.85,1.45.57,2.69,1.38,3.71,2.44,1.02,1.06,1.8,2.33,2.33,3.81.53,1.49.8,3.14.8,4.98s-.27,3.53-.8,5.03c-.53,1.5-1.31,2.79-2.33,3.86-1.02,1.08-2.26,1.9-3.71,2.47-1.45.57-3.09.85-4.93.85h-8.18ZM188.63,20.01h2.44c1.25,0,2.32-.31,3.19-.92.87-.61,1.53-1.49,1.98-2.63.45-1.14.68-2.46.68-3.97s-.23-2.81-.68-3.92c-.45-1.1-1.11-1.95-1.98-2.56s-1.93-.91-3.19-.91h-2.44v14.9Z"/>
      <path class="cls-1" d="M210.63.42h8.6l6.16,24.29h-5.85l-3.17-13.78-1.46-6.47-1.5,6.47-3.24,13.78h-5.67L210.63.42ZM208.16,20.05v-4.7h14.31v4.7h-14.31Z"/>
      <path class="cls-1" d="M228.03,24.71V.42h7.31l6.79,17.19-.38-8.84V.42h5.4v24.29h-7.31l-6.86-16.88.45,8.53v8.35h-5.4Z"/>
      <path class="cls-1" d="M260.44,25.13c-2.18,0-4.07-.52-5.66-1.55-1.59-1.03-2.82-2.49-3.69-4.39-.87-1.89-1.3-4.1-1.3-6.63s.44-4.77,1.32-6.65c.88-1.88,2.13-3.34,3.76-4.37,1.62-1.03,3.55-1.55,5.78-1.55,1.74,0,3.34.34,4.8,1.01,1.46.67,2.66,1.65,3.6,2.92.94,1.28,1.46,2.83,1.55,4.66h-6.27c-.12-1.18-.49-2.13-1.11-2.84-.63-.71-1.49-1.06-2.58-1.06-.93,0-1.77.3-2.52.89-.75.59-1.35,1.47-1.78,2.65-.43,1.17-.64,2.62-.64,4.33s.21,3.13.63,4.3.98,2.06,1.69,2.66c.71.6,1.51.9,2.42.9.77,0,1.43-.16,2-.47s1.03-.77,1.39-1.38c.36-.6.57-1.33.64-2.19h6.27c-.19,1.79-.71,3.34-1.58,4.65-.87,1.31-2.04,2.32-3.5,3.03-1.46.71-3.2,1.06-5.22,1.06ZM260.44,32.44c-.53,0-1.1-.05-1.71-.16s-1.18-.25-1.74-.43v-2.37c.33.12.73.21,1.2.3s.92.12,1.34.12c.44,0,.83-.06,1.17-.17.34-.12.5-.31.5-.59,0-.23-.17-.41-.5-.54s-.7-.19-1.1-.19c-.21,0-.41.02-.61.05-.2.03-.38.08-.54.12l-.77-1.36,2.12-3.48,2.68.8-1.18,1.74c.09-.02.18-.04.26-.05.08-.01.16-.02.23-.02.53,0,1.06.1,1.58.31.52.21.96.53,1.31.96.35.43.52.98.52,1.65,0,.77-.22,1.39-.66,1.88-.44.49-1.02.85-1.74,1.08-.72.23-1.51.35-2.37.35Z"/>
      <path class="cls-1" d="M278.5.42h8.6l6.16,24.29h-5.85l-3.17-13.78-1.46-6.47-1.5,6.47-3.24,13.78h-5.67l6.13-24.29ZM276.03,20.05v-4.7h14.31v4.7h-14.31Z"/>
      <path class="cls-1" d="M296.01,24.71V.42h8.18c1.83,0,3.48.28,4.93.85,1.45.57,2.69,1.38,3.71,2.44,1.02,1.06,1.8,2.33,2.33,3.81.53,1.49.8,3.14.8,4.98s-.27,3.53-.8,5.03c-.53,1.5-1.31,2.79-2.33,3.86-1.02,1.08-2.26,1.9-3.71,2.47-1.45.57-3.09.85-4.93.85h-8.18ZM301.76,20.01h2.44c1.25,0,2.32-.31,3.19-.92.87-.61,1.53-1.49,1.98-2.63.45-1.14.68-2.46.68-3.97s-.23-2.81-.68-3.92c-.45-1.1-1.11-1.95-1.98-2.56s-1.93-.91-3.19-.91h-2.44v14.9Z"/>
      <path class="cls-1" d="M319.3,24.71V.42h18v4.7h-12.25v4.7h7.9v4.7h-7.9v5.5h12.39v4.7h-18.14Z"/>
      <path class="cls-1" d="M350.84,25.13c-2,0-3.71-.38-5.13-1.13-1.43-.75-2.52-1.82-3.27-3.2s-1.13-3.01-1.13-4.89h5.64c0,1.46.32,2.58.96,3.36.64.78,1.62,1.17,2.94,1.17,1.04,0,1.87-.23,2.49-.68.61-.45.92-1.1.92-1.93,0-.63-.23-1.12-.68-1.48-.45-.36-1.06-.66-1.81-.9-.75-.24-1.58-.48-2.47-.7-.89-.22-1.79-.49-2.68-.82-.89-.32-1.72-.75-2.47-1.29-.75-.53-1.36-1.23-1.81-2.09-.45-.86-.68-1.95-.68-3.27s.38-2.6,1.13-3.69c.75-1.09,1.8-1.96,3.15-2.61,1.35-.65,2.92-.97,4.73-.97,1.65,0,3.18.32,4.6.96,1.41.64,2.56,1.56,3.45,2.77.88,1.21,1.35,2.69,1.39,4.46h-5.74c-.05-.79-.25-1.44-.61-1.95-.36-.51-.81-.89-1.36-1.15-.54-.25-1.12-.38-1.72-.38-.86,0-1.59.2-2.19.61s-.9,1-.9,1.79c0,.6.23,1.08.68,1.43.45.35,1.06.63,1.81.85s1.58.44,2.47.64c.89.21,1.79.47,2.68.78.89.31,1.72.75,2.47,1.31s1.36,1.29,1.81,2.21c.45.92.68,2.08.68,3.5s-.4,2.67-1.2,3.78c-.8,1.1-1.9,1.97-3.31,2.59-1.4.63-3.01.94-4.82.94Z"/>
      <path class="cls-1" d="M370.43,24.71V5.12h-7.1V.42h19.95v4.7h-7.1v19.6h-5.74Z"/>
      <path class="cls-1" d="M387.49.42h16.88v4.7h-16.88V.42ZM387.49,20.01h16.88v4.7h-16.88v-4.7ZM393.06,24.71V.42h5.74v24.29h-5.74Z"/>
      <path class="cls-1" d="M409.04,24.71V.42h7.31l6.79,17.19-.38-8.84V.42h5.4v24.29h-7.31l-6.86-16.88.45,8.53v8.35h-5.39Z"/>
      <path class="cls-1" d="M441.23,25.13c-2.13,0-4.01-.5-5.62-1.51-1.61-1.01-2.87-2.45-3.76-4.33-.89-1.88-1.34-4.12-1.34-6.72s.45-4.87,1.34-6.75c.89-1.88,2.15-3.32,3.76-4.32,1.61-1,3.49-1.5,5.62-1.5s4,.5,5.6,1.5c1.6,1,2.85,2.43,3.74,4.3.89,1.87,1.34,4.12,1.34,6.77s-.45,4.84-1.34,6.72c-.89,1.88-2.14,3.32-3.74,4.33-1.6,1.01-3.47,1.51-5.6,1.51ZM441.23,20.43c.91,0,1.72-.31,2.44-.92s1.29-1.51,1.71-2.68c.42-1.17.63-2.59.63-4.26s-.21-3.13-.63-4.3c-.42-1.17-.99-2.06-1.71-2.66s-1.53-.91-2.44-.91-1.72.31-2.45.92-1.31,1.51-1.72,2.68c-.42,1.17-.63,2.59-.63,4.26s.21,3.09.63,4.26c.42,1.17.99,2.07,1.72,2.68s1.55.92,2.45.92Z"/>
    </g>
  </g>
</svg>