<?xml version="1.0" encoding="UTF-8"?>
<svg id="Camada_1" data-name="Camada 1" xmlns="http://www.w3.org/2000/svg" viewBox="0 0 548.47 142.21">
  <defs>
    <style>
      .cls-1 {
        fill: #fff;
      }

      .cls-2 {
        isolation: isolate;
      }
    </style>
  </defs>
  <g class="cls-2">
    <g class="cls-2">
      <path class="cls-1" d="M45.29,51.87l-.15-23.11-11.01,18.55h-7.54l-11.01-17.75v22.31H0V1.16h14.06l16.52,27.02L46.67,1.16h14.06l.14,50.71h-15.58Z"/>
      <path class="cls-1" d="M69.13,1.16h17.1v50.71h-17.1V1.16Z"/>
      <path class="cls-1" d="M92.46,26.52c0-15.58,11.96-26.52,28.26-26.52,9.93,0,17.75,3.62,22.75,10.14l-10.8,9.64c-2.97-3.77-6.52-5.94-11.09-5.94-7.1,0-11.88,4.93-11.88,12.68s4.78,12.68,11.88,12.68c4.57,0,8.12-2.17,11.09-5.94l10.8,9.64c-5,6.52-12.83,10.14-22.75,10.14-16.3,0-28.26-10.94-28.26-26.52Z"/>
      <path class="cls-1" d="M170.13,39.12h-4.64v12.75h-17.1V1.16h24.42c14.13,0,23.12,7.39,23.12,19.13,0,7.32-3.48,12.82-9.57,15.94l10.65,15.65h-18.26l-8.62-12.75ZM171.73,14.34h-6.23v11.88h6.23c4.71,0,6.96-2.25,6.96-5.94s-2.25-5.94-6.96-5.94Z"/>
      <path class="cls-1" d="M200.35,26.52c0-15.36,12.1-26.52,28.62-26.52s28.62,11.16,28.62,26.52-12.1,26.52-28.62,26.52-28.62-11.16-28.62-26.52ZM240.35,26.52c0-7.9-5.07-12.68-11.38-12.68s-11.38,4.78-11.38,12.68,5.07,12.68,11.38,12.68,11.38-4.78,11.38-12.68Z"/>
      <path class="cls-1" d="M262.95,24.78h21.74v12.32h-21.74v-12.32Z"/>
    </g>
    <g class="cls-2">
      <path class="cls-1" d="M21.73,112.07h-4.64v12.75H0v-50.71h24.42c14.13,0,23.11,7.39,23.11,19.13,0,7.32-3.48,12.82-9.56,15.94l10.65,15.65h-18.26l-8.62-12.75ZM23.33,87.29h-6.23v11.88h6.23c4.71,0,6.96-2.25,6.96-5.94s-2.25-5.94-6.96-5.94Z"/>
      <path class="cls-1" d="M96.14,111.92v12.9h-42.17v-50.71h41.22v12.9h-24.42v5.94h21.44v12.32h-21.44v6.67h25.36Z"/>
      <path class="cls-1" d="M100.71,99.46c0-15.36,12.1-26.52,28.62-26.52s28.62,11.16,28.62,26.52-12.1,26.52-28.62,26.52-28.62-11.16-28.62-26.52ZM140.7,99.46c0-7.9-5.07-12.68-11.37-12.68s-11.37,4.78-11.37,12.68,5.07,12.68,11.37,12.68,11.37-4.78,11.37-12.68Z"/>
      <path class="cls-1" d="M162.15,99.46c0-15.58,11.95-26.52,28.25-26.52,9.93,0,17.75,3.62,22.75,10.14l-10.79,9.64c-2.97-3.77-6.52-5.94-11.08-5.94-7.1,0-11.88,4.93-11.88,12.68s4.78,12.68,11.88,12.68c4.56,0,8.11-2.17,11.08-5.94l10.79,9.64c-5,6.52-12.82,10.14-22.75,10.14-16.3,0-28.25-10.94-28.25-26.52Z"/>
      <path class="cls-1" d="M216.93,102v-27.89h17.1v27.39c0,7.75,2.97,10.65,7.75,10.65s7.75-2.9,7.75-10.65v-27.39h16.81v27.89c0,15.21-9.13,23.98-24.71,23.98s-24.71-8.77-24.71-23.98Z"/>
      <path class="cls-1" d="M321.69,93.23c0,11.74-8.98,19.13-23.11,19.13h-7.32v12.46h-17.1v-50.71h24.42c14.13,0,23.11,7.39,23.11,19.13ZM304.45,93.23c0-3.69-2.25-5.94-6.96-5.94h-6.23v11.88h6.23c4.71,0,6.96-2.25,6.96-5.94Z"/>
      <path class="cls-1" d="M359.29,115.98h-19.27l-3.41,8.84h-17.39l22.17-50.71h16.81l22.17,50.71h-17.68l-3.41-8.84ZM354.59,103.66l-4.93-12.75-4.93,12.75h9.85Z"/>
      <path class="cls-1" d="M420.59,106.2l10.79,9.64c-4.71,6.09-11.88,9.71-20.94,10.07l-.58,2.68c4.56.58,6.16,3.26,6.16,5.8,0,4.85-4.93,7.82-12.32,7.82-2.46,0-5.51-.65-7.1-1.52l2.03-6.01c1.09.44,2.61.87,4.35.87,2.46,0,3.48-.72,3.48-1.74,0-.87-.87-1.45-2.97-1.45h-2.97l1.67-6.96c-12.9-2.54-21.81-12.53-21.81-25.94,0-15.58,11.95-26.52,28.25-26.52,9.93,0,17.75,3.62,22.75,10.14l-10.79,9.64c-2.97-3.77-6.52-5.94-11.08-5.94-7.1,0-11.88,4.93-11.88,12.68s4.78,12.68,11.88,12.68c4.56,0,8.11-2.17,11.08-5.94Z"/>
      <path class="cls-1" d="M470.15,115.98h-19.27l-3.41,8.84h-17.39l22.17-50.71h16.81l22.17,50.71h-17.68l-3.41-8.84ZM452.54,69.97h-7.75c.15-7.61,3.84-12.53,10-12.53,5.36,0,8.11,4.27,10.72,4.27,1.88,0,3.12-1.3,3.26-3.33h7.75c-.14,7.39-3.84,12.32-10,12.32-5.36,0-8.11-4.27-10.72-4.27-1.88,0-3.12,1.38-3.26,3.55ZM465.44,103.66l-4.93-12.75-4.93,12.75h9.85Z"/>
      <path class="cls-1" d="M491.24,99.46c0-15.36,12.1-26.52,28.62-26.52s28.62,11.16,28.62,26.52-12.1,26.52-28.62,26.52-28.62-11.16-28.62-26.52ZM531.23,99.46c0-7.9-5.07-12.68-11.37-12.68s-11.37,4.78-11.37,12.68,5.07,12.68,11.37,12.68,11.37-4.78,11.37-12.68Z"/>
    </g>
  </g>
</svg>