<?xml version="1.0" encoding="UTF-8"?>
<svg id="Camada_1" data-name="Camada 1" xmlns="http://www.w3.org/2000/svg" viewBox="0 0 1267 144.63">
  <defs>
    <style>
      .cls-1 {
        fill: #f5d933;
      }

      .cls-2 {
        isolation: isolate;
      }
    </style>
  </defs>
  <g class="cls-2">
    <g class="cls-2">
      <path class="cls-1" d="M92.65,0v109.28h-31.67v-6.63c-4.86,5.45-12.08,8.1-22.09,8.1C17.82,110.75,0,94.85,0,68.93S17.82,27.25,38.88,27.25c8.84,0,15.61,2.21,20.47,6.92V0h33.29ZM59.95,68.93c0-10.46-5.75-15.76-13.11-15.76s-13.11,5.3-13.11,15.76,5.74,15.91,13.11,15.91,13.11-5.45,13.11-15.91Z"/>
      <path class="cls-1" d="M178.66,91.31h-39.18l-6.92,17.97h-35.35L142.28,6.19h34.17l45.07,103.09h-35.94l-6.92-17.97ZM169.09,66.28l-10.02-25.92-10.02,25.92h20.03Z"/>
      <path class="cls-1" d="M328.76,6.19v103.09h-28.58l-39.18-46.83v46.83h-33.88V6.19h28.58l39.18,46.83V6.19h33.88Z"/>
      <path class="cls-1" d="M423.17,71.43l21.95,19.59c-9.57,12.37-24.16,19.74-42.57,20.47l-1.18,5.45c9.28,1.18,12.52,6.63,12.52,11.78,0,9.87-10.02,15.91-25.04,15.91-5.01,0-11.19-1.33-14.43-3.09l4.12-12.22c2.21.88,5.3,1.77,8.84,1.77,5.01,0,7.07-1.47,7.07-3.53,0-1.77-1.77-2.95-6.04-2.95h-6.04l3.39-14.14c-26.22-5.16-44.33-25.48-44.33-52.73,0-31.67,24.3-53.9,57.44-53.9,20.18,0,36.09,7.36,46.25,20.62l-21.95,19.59c-6.04-7.66-13.26-12.08-22.54-12.08-14.43,0-24.16,10.01-24.16,25.77s9.72,25.77,24.16,25.77c9.28,0,16.5-4.42,22.54-12.08Z"/>
      <path class="cls-1" d="M523.92,91.31h-39.18l-6.92,17.97h-35.35L487.54,6.19h34.17l45.07,103.09h-35.94l-6.92-17.97ZM514.34,66.28l-10.02-25.92-10.02,25.92h20.03Z"/>
      <path class="cls-1" d="M572.38,6.19h50.82c34.47,0,58.18,19.59,58.18,51.55s-23.71,51.55-58.18,51.55h-50.82V6.19ZM621.72,82.18c14.58,0,24.6-8.69,24.6-24.45s-10.02-24.45-24.6-24.45h-14.58v48.9h14.58Z"/>
      <path class="cls-1" d="M779.76,83.07v26.21h-85.72V6.19h83.81v26.22h-49.64v12.08h43.6v25.04h-43.6v13.55h51.55Z"/>
      <path class="cls-1" d="M786.69,101.03l11.19-25.33c9.72,5.74,22.68,9.43,34.02,9.43,9.87,0,13.4-2.06,13.4-5.6,0-12.96-57-2.5-57-40.94,0-19.15,16.05-34.76,48.02-34.76,13.85,0,28.13,2.95,38.88,8.98l-10.46,25.18c-10.16-5.15-19.74-7.66-28.72-7.66-10.16,0-13.4,2.95-13.4,6.48,0,12.37,57,2.06,57,40.06,0,18.85-16.05,34.76-48.02,34.76-17.23,0-34.61-4.27-44.92-10.6Z"/>
      <path class="cls-1" d="M910.85,33.14h-30.2V6.19h95.15v26.95h-30.19v76.14h-34.76V33.14Z"/>
      <path class="cls-1" d="M984.79,6.19h34.76v103.09h-34.76V6.19Z"/>
      <path class="cls-1" d="M1137.98,6.19v103.09h-28.57l-39.18-46.83v46.83h-33.88V6.19h28.58l39.18,46.83V6.19h33.88Z"/>
      <path class="cls-1" d="M1150.64,57.73c0-31.22,24.6-53.9,58.18-53.9s58.18,22.68,58.18,53.9-24.6,53.9-58.18,53.9-58.18-22.68-58.18-53.9ZM1231.95,57.73c0-16.05-10.31-25.77-23.12-25.77s-23.12,9.72-23.12,25.77,10.31,25.77,23.12,25.77,23.12-9.72,23.12-25.77Z"/>
    </g>
  </g>
</svg>